<svg width="14" height="16" viewBox="0 0 14 16" fill="none" xmlns="http://www.w3.org/2000/svg">
<path d="M10.3279 9.12651C9.44528 8.40522 8.24816 8 6.99991 8C5.75167 8 4.55454 8.40522 3.6719 9.12651C1.50826 10.8946 2.663 13.0543 3.30193 15.1429H10.6979C11.3368 13.0543 12.4916 10.8946 10.3279 9.12651Z" fill="white"/>
<path d="M11.1353 14.0838C11.1353 15.1138 9.45224 15.73 7.06766 15.73C4.68308 15.73 3 15.1138 3 14.0838C3 13.0538 7.06766 12 7.06766 12C7.06766 12 11.1353 13.0538 11.1353 14.0838Z" fill="#D7E0FF"/>
<path d="M10.3279 9.12651C9.44528 8.40522 8.24816 8 6.99991 8C5.75167 8 4.55454 8.40522 3.6719 9.12651C1.50826 10.8946 2.663 13.0543 3.30193 15.1429H10.6979C11.3368 13.0543 12.4916 10.8946 10.3279 9.12651Z" stroke="#9899B5" stroke-width="1.5" stroke-linecap="round" stroke-linejoin="round"/>
<path d="M10.3279 6.87349C9.44528 7.59478 8.24816 8 6.99991 8C5.75167 8 4.55454 7.59478 3.6719 6.87349C1.50826 5.10536 2.663 2.94569 3.30193 0.857143H10.6979C11.3368 2.94569 12.4916 5.10536 10.3279 6.87349Z" fill="white" stroke="#9899B5" stroke-width="1.5" stroke-linecap="round" stroke-linejoin="round"/>
<path d="M0.956055 0.857147H13.044" stroke="#9899B5" stroke-width="1.5" stroke-linecap="round" stroke-linejoin="round"/>
<path d="M0.956055 15.1429H13.044" stroke="#9899B5" stroke-width="1.5" stroke-linecap="round" stroke-linejoin="round"/>
</svg>
